<svg width="57" height="16" viewBox="0 0 57 16" fill="none" xmlns="http://www.w3.org/2000/svg">
<path d="M3.20068 9.2666L8.48877 11.1313V13.729L0.500977 10.3428V8.15332L8.48877 4.76709V7.36475L3.20068 9.2666ZM15.6045 15V1.49219H20.3359C21.9749 1.49219 23.2181 1.80762 24.0654 2.43848C24.9128 3.06315 25.3364 3.98161 25.3364 5.19385C25.3364 5.85563 25.1663 6.4401 24.8262 6.94727C24.486 7.44824 24.0129 7.81624 23.4067 8.05127C24.0994 8.22445 24.6437 8.57389 25.0396 9.09961C25.4416 9.62533 25.6426 10.2686 25.6426 11.0293C25.6426 12.3281 25.2282 13.3115 24.3994 13.9795C23.5706 14.6475 22.3893 14.9876 20.8555 15H15.6045ZM18.3877 9.11816V12.7642H20.772C21.4276 12.7642 21.9378 12.6095 22.3027 12.3003C22.6738 11.9849 22.8594 11.5519 22.8594 11.0015C22.8594 9.76449 22.2192 9.13672 20.939 9.11816H18.3877ZM18.3877 7.15137H20.4473C21.8512 7.12663 22.5532 6.56689 22.5532 5.47217C22.5532 4.85986 22.3739 4.42074 22.0151 4.15479C21.6626 3.88265 21.1029 3.74658 20.3359 3.74658H18.3877V7.15137ZM33.3799 15C33.2562 14.7588 33.1665 14.4588 33.1108 14.1001C32.4614 14.8237 31.6172 15.1855 30.5781 15.1855C29.5947 15.1855 28.7783 14.901 28.1289 14.332C27.4857 13.763 27.1641 13.0456 27.1641 12.1797C27.1641 11.1159 27.5568 10.2995 28.3423 9.73047C29.134 9.16146 30.2751 8.87386 31.7656 8.86768H32.9995V8.29248C32.9995 7.82861 32.8789 7.45752 32.6377 7.1792C32.4027 6.90088 32.0285 6.76172 31.5151 6.76172C31.0636 6.76172 30.708 6.86995 30.4482 7.08643C30.1947 7.3029 30.0679 7.59977 30.0679 7.97705H27.3867C27.3867 7.39567 27.5661 6.85758 27.9248 6.36279C28.2835 5.868 28.7907 5.48145 29.4463 5.20312C30.1019 4.91862 30.8379 4.77637 31.6543 4.77637C32.8913 4.77637 33.8716 5.0887 34.5952 5.71338C35.325 6.33187 35.6899 7.20394 35.6899 8.32959V12.6807C35.6961 13.6331 35.8291 14.3537 36.0889 14.8423V15H33.3799ZM31.1626 13.1353C31.5584 13.1353 31.9233 13.0487 32.2573 12.8755C32.5913 12.6961 32.8387 12.458 32.9995 12.1611V10.4355H31.9976C30.6554 10.4355 29.9411 10.8994 29.8545 11.8271L29.8452 11.9849C29.8452 12.3188 29.9627 12.5941 30.1978 12.8105C30.4328 13.027 30.7544 13.1353 31.1626 13.1353ZM41.9243 13.0239C42.4191 13.0239 42.8211 12.8879 43.1304 12.6157C43.4396 12.3436 43.6004 11.9818 43.6128 11.5303H46.127C46.1208 12.2106 45.9352 12.8353 45.5703 13.4043C45.2054 13.9671 44.7044 14.4062 44.0674 14.7217C43.4365 15.0309 42.7376 15.1855 41.9707 15.1855C40.5358 15.1855 39.404 14.731 38.5752 13.8218C37.7464 12.9064 37.332 11.6447 37.332 10.0366V9.86035C37.332 8.31413 37.7433 7.08024 38.5659 6.15869C39.3885 5.23714 40.5173 4.77637 41.9521 4.77637C43.2077 4.77637 44.2127 5.13509 44.9673 5.85254C45.728 6.5638 46.1146 7.51318 46.127 8.70068H43.6128C43.6004 8.18115 43.4396 7.76058 43.1304 7.43896C42.8211 7.11117 42.4129 6.94727 41.9058 6.94727C41.2811 6.94727 40.8079 7.17611 40.4863 7.63379C40.1709 8.08529 40.0132 8.82129 40.0132 9.8418V10.1201C40.0132 11.153 40.1709 11.8952 40.4863 12.3467C40.8018 12.7982 41.2811 13.0239 41.9243 13.0239ZM51.3037 10.9736L50.3389 11.9385V15H47.6577V0.75H50.3389V8.64502L50.8584 7.97705L53.4282 4.96191H56.6475L53.02 9.146L56.9629 15H53.8828L51.3037 10.9736Z" fill="#2944A3"/>
</svg>
