<svg width="154" height="18" viewBox="0 0 154 18" fill="none" xmlns="http://www.w3.org/2000/svg">
<path d="M3.36621 8.21088L8.17383 9.82806V12.5263L0.404297 9.36224V7.02435L8.17383 3.86029V6.54974L3.36621 8.21088ZM10.1426 13.5634V0.766541H14.2646C15.3955 0.766541 16.4121 1.02435 17.3145 1.53998C18.2168 2.04974 18.9199 2.77338 19.4238 3.71088C19.9336 4.64252 20.1914 5.68842 20.1973 6.84857V7.43744C20.1973 8.60931 19.9482 9.66107 19.4502 10.5927C18.958 11.5185 18.2607 12.2451 17.3584 12.7724C16.4619 13.2939 15.46 13.5576 14.3525 13.5634H10.1426ZM13.2275 3.14838V11.1904H14.2998C15.1846 11.1904 15.8643 10.8769 16.3389 10.2499C16.8135 9.61713 17.0508 8.67963 17.0508 7.43744V6.88373C17.0508 5.6474 16.8135 4.71576 16.3389 4.08881C15.8643 3.46185 15.1729 3.14838 14.2646 3.14838H13.2275ZM27 13.5634C26.8945 13.3701 26.8008 13.0859 26.7188 12.7109C26.1738 13.3964 25.4121 13.7392 24.4336 13.7392C23.5371 13.7392 22.7754 13.4697 22.1484 12.9306C21.5215 12.3857 21.208 11.7031 21.208 10.8828C21.208 9.8515 21.5889 9.0722 22.3506 8.54486C23.1123 8.01752 24.2197 7.75385 25.6729 7.75385H26.5869V7.25287C26.5869 6.37982 26.209 5.9433 25.4531 5.9433C24.75 5.9433 24.3984 6.289 24.3984 6.98041H21.4365C21.4365 6.06049 21.8262 5.31342 22.6055 4.7392C23.3906 4.16498 24.3896 3.87787 25.6025 3.87787C26.8154 3.87787 27.7734 4.17377 28.4766 4.76556C29.1797 5.35736 29.54 6.16888 29.5576 7.20013V11.4101C29.5693 12.2831 29.7041 12.9511 29.9619 13.414V13.5634H27ZM25.1455 11.6298C25.5146 11.6298 25.8193 11.5507 26.0596 11.3925C26.3057 11.2343 26.4814 11.0556 26.5869 10.8564V9.33588H25.7256C24.6943 9.33588 24.1787 9.79877 24.1787 10.7245C24.1787 10.9941 24.2695 11.2138 24.4512 11.3837C24.6328 11.5478 24.8643 11.6298 25.1455 11.6298ZM33.9258 4.05365L34.0225 5.16986C34.6787 4.30853 35.584 3.87787 36.7383 3.87787C37.7285 3.87787 38.4668 4.17377 38.9531 4.76556C39.4453 5.35736 39.7002 6.24799 39.7178 7.43744V13.5634H36.7471V7.56049C36.7471 7.08002 36.6504 6.72845 36.457 6.5058C36.2637 6.27728 35.9121 6.16302 35.4023 6.16302C34.8223 6.16302 34.3916 6.39154 34.1104 6.84857V13.5634H31.1484V4.05365H33.9258ZM44.0859 4.05365L44.1826 5.16986C44.8389 4.30853 45.7441 3.87787 46.8984 3.87787C47.8887 3.87787 48.627 4.17377 49.1133 4.76556C49.6055 5.35736 49.8604 6.24799 49.8779 7.43744V13.5634H46.9072V7.56049C46.9072 7.08002 46.8105 6.72845 46.6172 6.5058C46.4238 6.27728 46.0723 6.16302 45.5625 6.16302C44.9824 6.16302 44.5518 6.39154 44.2705 6.84857V13.5634H41.3086V4.05365H44.0859ZM55.3271 9.41498L56.9092 4.05365H60.082L56.2061 15.1542L56.0391 15.5585C55.4883 16.789 54.5156 17.4042 53.1211 17.4042C52.7344 17.4042 52.3271 17.3456 51.8994 17.2285V15.1103H52.2861C52.7021 15.1103 53.0186 15.0488 53.2354 14.9257C53.458 14.8085 53.6221 14.5947 53.7275 14.2841L53.9648 13.6513L50.6602 4.05365H53.8242L55.3271 9.41498ZM72.0791 10.162C72.0791 9.71088 71.918 9.35931 71.5957 9.10736C71.2793 8.85541 70.7197 8.59467 69.917 8.32513C69.1143 8.0556 68.458 7.79486 67.9482 7.54291C66.29 6.72845 65.4609 5.60931 65.4609 4.18549C65.4609 3.4765 65.666 2.85248 66.0762 2.31342C66.4922 1.76849 67.0781 1.34662 67.834 1.04779C68.5898 0.743103 69.4395 0.590759 70.3828 0.590759C71.3027 0.590759 72.126 0.754822 72.8525 1.08295C73.585 1.41107 74.1533 1.87982 74.5576 2.4892C74.9619 3.09271 75.1641 3.78412 75.1641 4.56342H72.0879C72.0879 4.04193 71.9268 3.63763 71.6045 3.35052C71.2881 3.06342 70.8574 2.91986 70.3125 2.91986C69.7617 2.91986 69.3252 3.04291 69.0029 3.289C68.6865 3.52924 68.5283 3.83685 68.5283 4.21185C68.5283 4.53998 68.7041 4.83881 69.0557 5.10834C69.4072 5.37201 70.0254 5.6474 70.9102 5.93451C71.7949 6.21576 72.5215 6.52045 73.0898 6.84857C74.4727 7.64545 75.1641 8.74408 75.1641 10.1445C75.1641 11.2636 74.7422 12.1425 73.8984 12.7812C73.0547 13.4199 71.8975 13.7392 70.4268 13.7392C69.3896 13.7392 68.4492 13.5546 67.6055 13.1855C66.7676 12.8105 66.1348 12.3007 65.707 11.6562C65.2852 11.0058 65.0742 10.2587 65.0742 9.41498H68.168C68.168 10.1005 68.3438 10.6074 68.6953 10.9355C69.0527 11.2578 69.6299 11.4189 70.4268 11.4189C70.9365 11.4189 71.3379 11.3105 71.6309 11.0937C71.9297 10.871 72.0791 10.5605 72.0791 10.162ZM81.9668 13.5634C81.8613 13.3701 81.7676 13.0859 81.6855 12.7109C81.1406 13.3964 80.3789 13.7392 79.4004 13.7392C78.5039 13.7392 77.7422 13.4697 77.1152 12.9306C76.4883 12.3857 76.1748 11.7031 76.1748 10.8828C76.1748 9.8515 76.5557 9.0722 77.3174 8.54486C78.0791 8.01752 79.1865 7.75385 80.6396 7.75385H81.5537V7.25287C81.5537 6.37982 81.1758 5.9433 80.4199 5.9433C79.7168 5.9433 79.3652 6.289 79.3652 6.98041H76.4033C76.4033 6.06049 76.793 5.31342 77.5723 4.7392C78.3574 4.16498 79.3564 3.87787 80.5693 3.87787C81.7822 3.87787 82.7402 4.17377 83.4434 4.76556C84.1465 5.35736 84.5068 6.16888 84.5244 7.20013V11.4101C84.5361 12.2831 84.6709 12.9511 84.9287 13.414V13.5634H81.9668ZM80.1123 11.6298C80.4814 11.6298 80.7861 11.5507 81.0264 11.3925C81.2725 11.2343 81.4482 11.0556 81.5537 10.8564V9.33588H80.6924C79.6611 9.33588 79.1455 9.79877 79.1455 10.7245C79.1455 10.9941 79.2363 11.2138 79.418 11.3837C79.5996 11.5478 79.8311 11.6298 80.1123 11.6298ZM88.8926 4.05365L88.9893 5.16986C89.6455 4.30853 90.5508 3.87787 91.7051 3.87787C92.6953 3.87787 93.4336 4.17377 93.9199 4.76556C94.4121 5.35736 94.667 6.24799 94.6846 7.43744V13.5634H91.7139V7.56049C91.7139 7.08002 91.6172 6.72845 91.4238 6.5058C91.2305 6.27728 90.8789 6.16302 90.3691 6.16302C89.7891 6.16302 89.3584 6.39154 89.0771 6.84857V13.5634H86.1152V4.05365H88.8926ZM100.354 11.454C100.77 11.454 101.092 11.3427 101.32 11.1201C101.549 10.8915 101.66 10.5751 101.654 10.1708H104.432C104.432 11.2138 104.057 12.0693 103.307 12.7372C102.562 13.4052 101.602 13.7392 100.424 13.7392C99.041 13.7392 97.9512 13.3056 97.1543 12.4384C96.3574 11.5712 95.959 10.3701 95.959 8.8349V8.71185C95.959 7.75092 96.1348 6.90424 96.4863 6.17181C96.8438 5.43353 97.3564 4.8681 98.0244 4.47552C98.6924 4.07709 99.4834 3.87787 100.397 3.87787C101.634 3.87787 102.615 4.22064 103.342 4.90619C104.068 5.59174 104.432 6.52045 104.432 7.69232H101.654C101.654 7.20013 101.534 6.8222 101.294 6.55853C101.054 6.29486 100.731 6.16302 100.327 6.16302C99.5596 6.16302 99.1113 6.65228 98.9824 7.6308C98.9414 7.94135 98.9209 8.36908 98.9209 8.914C98.9209 9.86908 99.0352 10.5312 99.2637 10.9003C99.4922 11.2695 99.8555 11.454 100.354 11.454ZM108.58 5.07318C109.213 4.27631 110.021 3.87787 111.006 3.87787C112.055 3.87787 112.846 4.18842 113.379 4.80951C113.912 5.4306 114.185 6.3476 114.196 7.56049V13.5634H111.226V7.6308C111.226 7.12689 111.123 6.75775 110.918 6.52338C110.713 6.28314 110.364 6.16302 109.872 6.16302C109.263 6.16302 108.832 6.35638 108.58 6.7431V13.5634H105.618V0.0634155H108.58V5.07318ZM120.445 13.7392C118.986 13.7392 117.806 13.3056 116.903 12.4384C116.001 11.5654 115.55 10.4316 115.55 9.03705V8.79095C115.55 7.8183 115.729 6.9599 116.086 6.21576C116.449 5.47162 116.977 4.8974 117.668 4.4931C118.359 4.08295 119.18 3.87787 120.129 3.87787C121.465 3.87787 122.52 4.29388 123.293 5.12592C124.066 5.95209 124.453 7.10638 124.453 8.58881V9.74017H118.564C118.67 10.2734 118.901 10.6923 119.259 10.997C119.616 11.3017 120.079 11.454 120.647 11.454C121.585 11.454 122.317 11.1259 122.845 10.4697L124.198 12.0693C123.829 12.579 123.305 12.9863 122.625 13.291C121.951 13.5898 121.225 13.7392 120.445 13.7392ZM120.111 6.16302C119.244 6.16302 118.729 6.73724 118.564 7.88568H121.553V7.65717C121.564 7.18256 121.444 6.81635 121.192 6.55853C120.94 6.29486 120.58 6.16302 120.111 6.16302ZM129.146 11.2783H133.479V13.5634H125.402V11.9111L129.621 6.33881H125.587V4.05365H133.383V5.65326L129.146 11.2783ZM150.653 8.18451L145.872 6.55853V3.86908L153.598 7.03314V9.37103L145.872 12.5351V9.84564L150.653 8.18451Z" fill="black"/>
<path d="M140.414 14.662H138.313L142.682 0.766541H144.791L140.414 14.662Z" fill="#3756C3"/>
</svg>
