<svg width="377" height="112" viewBox="0 0 377 112" fill="none" xmlns="http://www.w3.org/2000/svg">
<path d="M56.6457 46.6765C56.6457 46.6765 63.0287 38.9451 62.6618 32.8625C62.2949 26.78 51.714 21.2339 45.6163 23.6532C39.5186 26.0725 37.2006 37.0194 33.6845 43.0951M59.6537 27.4319C59.6537 27.4319 63.1631 22.63 65.6698 19.5602C68.1765 16.4904 63.6644 14.4439 60.6564 16.4904C58.1358 18.2054 56.3192 21.3573 55.7967 22.3337C55.6999 22.5147 55.513 22.63 55.3077 22.63V22.63C54.9647 22.63 54.7005 22.313 54.7368 21.9719C54.8889 20.5392 54.9601 16.9799 52.635 13.4207C50.0166 9.41239 48.1579 11.9947 47.7204 12.7309C47.6513 12.847 47.6181 12.9786 47.6111 13.1136L47.1203 22.63M8.51738 47.5581L7.01337 28.6279M7.01337 28.6279C7.01337 28.6279 6.51203 21.0951 10.0214 16.4904C11.3216 14.7845 12.4504 13.8101 14.5334 13.4207C17.8073 12.8086 20.0481 14.9555 22.0535 17.5137C24.0588 20.0718 25.1876 21.9883 26.5655 25.1881C27.9613 28.4294 28.3826 30.4159 29.0722 33.8858C29.7384 37.2376 30.0749 46.6765 30.0749 46.6765M7.01337 28.6279L12.5281 26.5814L14.5334 25.8847L16.5388 25.1881M7.01337 38.4904L21.0508 33.8858M10.713 49.5521L16.8499 43.2892C17.2331 42.8981 17.8597 42.888 18.2554 43.2666L24.8489 49.5748C25.2445 49.9534 25.8711 49.9432 26.2544 49.5521L32.4307 43.2491C32.7981 42.8741 33.3929 42.8471 33.7928 43.1872L41.3971 49.6542C41.797 49.9942 42.3918 49.9672 42.7592 49.5923L48.9354 43.2892C49.3187 42.8981 49.9453 42.888 50.341 43.2666L56.9094 49.5508C57.3148 49.9387 57.96 49.9172 58.3386 49.5032L62.9292 44.4837C63.5451 43.8103 64.6671 44.2461 64.6671 45.1586V99.3974C64.6671 99.9497 64.2194 100.397 63.6671 100.397H3C2.44772 100.397 2 99.9497 2 99.3974V44.9242C2 44.0439 3.05525 43.5931 3.69131 44.2016L9.30741 49.5748C9.7031 49.9534 10.3297 49.9432 10.713 49.5521Z" stroke="#85C872" stroke-width="4"/>
<path d="M86.726 1L86.213 111" stroke="#285A84" stroke-width="4"/>
<path d="M127.362 84.1922C138.884 84.1922 146.089 78.4149 146.089 69.2508C146.089 62.1454 141.839 58.0946 131.745 56.0028L126.598 54.9403C120.622 53.6786 118.231 51.5868 118.231 48.3329C118.231 44.3153 122.016 41.7918 127.329 41.7918C131.811 41.7918 135.231 43.5184 136.858 47.5692C137.755 49.4286 138.983 50.2918 140.975 50.2918C143.2 50.2918 144.694 48.8641 144.694 46.7723C144.694 45.9754 144.594 45.3446 144.395 44.8133C142.436 38.4715 135.862 34.6864 127.395 34.6864C117.003 34.6864 109.598 40.3973 109.598 48.8309C109.598 55.8368 114.081 60.3524 123.677 62.3114L128.823 63.3739C135.065 64.6688 137.456 66.7938 137.456 70.2469C137.456 74.2313 133.405 77.0868 127.628 77.0868C122.514 77.0868 118.397 75.2274 116.903 71.077C115.973 69.1512 114.778 68.3875 112.885 68.3875C110.628 68.3875 109.1 69.9149 109.1 72.3055C109.1 73.1024 109.266 73.9657 109.565 74.7625C111.425 80.2079 117.8 84.1922 127.362 84.1922ZM157.857 95.9129C160.281 95.9129 162.008 94.3524 162.008 91.5633V77.5516H162.174C164.099 81.5028 168.084 83.9598 173.197 83.9598C182.029 83.9598 187.674 77.0204 187.674 65.7977C187.674 54.5418 181.996 47.6024 173.064 47.6024C167.951 47.6024 163.967 50.1922 161.974 54.2762H161.808V51.7528C161.808 49.0301 160.115 47.5028 157.758 47.5028C155.4 47.5028 153.74 49.0301 153.74 51.7528V91.5633C153.74 94.3524 155.433 95.9129 157.857 95.9129ZM170.541 77.1864C165.394 77.1864 161.974 72.7039 161.941 65.7977C161.974 58.9579 165.394 54.409 170.541 54.409C175.886 54.409 179.207 58.8582 179.207 65.7977C179.207 72.7704 175.886 77.1864 170.541 77.1864ZM210.598 84.0926C220.924 84.0926 227.632 77.2196 227.632 65.7977C227.632 54.409 220.858 47.4696 210.598 47.4696C200.339 47.4696 193.565 54.4422 193.565 65.7977C193.565 77.2196 200.272 84.0926 210.598 84.0926ZM210.598 77.5516C205.352 77.5516 201.965 73.3016 201.965 65.7977C201.965 58.327 205.385 54.0438 210.598 54.0438C215.844 54.0438 219.231 58.327 219.231 65.7977C219.231 73.3016 215.844 77.5516 210.598 77.5516ZM239.3 43.2528C241.89 43.2528 243.916 41.2606 243.916 38.7704C243.916 36.2469 241.89 34.2879 239.3 34.2879C236.744 34.2879 234.718 36.2469 234.718 38.7704C234.718 41.2606 236.744 43.2528 239.3 43.2528ZM239.3 84.0594C241.824 84.0594 243.451 82.3993 243.451 79.7098V51.8856C243.451 49.1961 241.824 47.5028 239.3 47.5028C236.777 47.5028 235.183 49.1961 235.183 51.8524V79.7098C235.183 82.3993 236.777 84.0594 239.3 84.0594ZM256.813 84.0594C259.237 84.0594 260.93 82.4989 260.93 79.7098V39.1688C260.93 36.3797 259.237 34.8192 256.813 34.8192C254.389 34.8192 252.663 36.3797 252.663 39.1688V79.7098C252.663 82.4989 254.389 84.0594 256.813 84.0594ZM274.326 43.2528C276.916 43.2528 278.941 41.2606 278.941 38.7704C278.941 36.2469 276.916 34.2879 274.326 34.2879C271.769 34.2879 269.744 36.2469 269.744 38.7704C269.744 41.2606 271.769 43.2528 274.326 43.2528ZM274.326 84.0594C276.849 84.0594 278.476 82.3993 278.476 79.7098V51.8856C278.476 49.1961 276.849 47.5028 274.326 47.5028C271.802 47.5028 270.209 49.1961 270.209 51.8524V79.7098C270.209 82.3993 271.802 84.0594 274.326 84.0594ZM301.036 84.0926C310.001 84.0926 316.043 79.6766 316.043 72.9364C316.043 67.7235 313.088 65.034 305.651 63.3407L300.04 62.1122C296.387 61.2821 294.86 59.8875 294.86 57.8289C294.86 55.3055 297.35 53.5457 300.969 53.5457C304.456 53.5457 306.481 55.0731 308.108 57.4969C308.872 58.5926 310.067 59.0243 311.262 59.0243C313.354 59.0243 314.45 57.7957 314.45 56.0692C314.45 55.6707 314.383 55.2723 314.284 54.8407C313.188 50.7899 307.942 47.4696 301.168 47.4696C292.469 47.4696 286.825 51.7528 286.825 58.2938C286.825 63.4071 290.211 66.7938 297.084 68.3543L302.795 69.6493C306.415 70.4793 307.743 71.6414 307.743 73.7664C307.743 76.4227 305.186 78.0497 301.334 78.0497C297.383 78.0497 295.258 76.8543 293.399 74.1649C292.336 72.7704 291.174 72.1395 289.813 72.1395C287.821 72.1395 286.36 73.4012 286.36 75.3934C286.36 75.8914 286.459 76.4227 286.692 77.0204C288.385 81.2372 293.598 84.0926 301.036 84.0926ZM325.587 74.6961C325.587 80.7059 328.708 83.7606 334.851 83.7606H335.183C338.968 83.7606 341.093 82.4657 341.093 80.0418C341.093 78.1161 339.964 77.1864 337.773 76.9872L337.175 76.9207C334.785 76.7215 333.855 75.5594 333.855 72.9032V54.575H337.673C339.732 54.575 340.994 53.3465 340.994 51.3543C340.994 49.3954 339.732 48.2 337.673 48.2H333.855V43.5184C333.855 40.8622 332.261 39.202 329.738 39.202C327.181 39.202 325.587 40.8622 325.587 43.5184V48.2H323.363C321.304 48.2 320.042 49.3954 320.042 51.3543C320.042 53.3465 321.304 54.575 323.363 54.575H325.587V74.6961Z" fill="#285A84"/>
</svg>
